# xmcd
#
# Track frame offsets:
#	150
#	44752
#	76117
#	99382
#	147875
#	186542
#
# Disc length: 3072 seconds
#
# Revision: 0
# Processed by: cddbd v1.5.2PL0 Copyright (c) Steve Scherf et al.
# Submitted via: audiograbber 1.83.01
#
DISCID=4e0bfe06
DTITLE=Dire Straits - Live in Cleveland 1985
DYEAR=1985
DGENRE=Rock
TTITLE0=Ride across the river
TTITLE1=Expresso love
TTITLE2=One world
TTITLE3=Romeo and Juliet
TTITLE4=Private investigation
TTITLE5=Sultans of swing
EXTD=
EXTT0=
EXTT1=
EXTT2=
EXTT3=
EXTT4=
EXTT5=
PLAYORDER=
